<svg stroke="yellow" fill="yellow" version="1.1" id="Capa_1" xmlns="http://www.w3.org/2000/svg" xmlns:xlink="http://www.w3.org/1999/xlink" x="0px" y="0px" viewBox="0 0 512 512" style="enable-background:new 0 0 512 512;" xml:space="preserve"><g><g><path d="M299.975,132.818c-3.962-1.229-8.158,0.989-9.384,4.945c-1.226,3.957,0.988,8.159,4.945,9.384 c46.956,14.542,78.666,58.84,76.904,108.585c-0.146,4.139,3.091,7.615,7.23,7.761c0.091,0.003,0.181,0.005,0.271,0.005 c4.019,0,7.347-3.186,7.49-7.234C389.444,199.568,353.21,149.302,299.975,132.818z"/></g></g><g><g><path d="M256,0.001c-4.143,0-7.5,3.357-7.5,7.5v35.401c0,4.143,3.357,7.5,7.5,7.5s7.5-3.357,7.5-7.5V7.501 C263.5,3.358,260.143,0.001,256,0.001z"/></g></g><g><g><path d="M256,461.597c-4.143,0-7.5,3.358-7.5,7.5v35.401c0,4.143,3.357,7.5,7.5,7.5s7.5-3.357,7.5-7.5v-35.401 C263.5,464.955,260.143,461.597,256,461.597z"/></g></g><g><g><path d="M155.946,67.702l-17.701-30.658c-2.072-3.588-6.66-4.815-10.246-2.745c-3.587,2.071-4.816,6.658-2.745,10.246 l17.701,30.658c2.074,3.591,6.662,4.814,10.246,2.745C156.789,75.876,158.018,71.289,155.946,67.702z"/></g></g><g><g><path d="M386.744,467.456l-17.701-30.659c-2.072-3.587-6.659-4.815-10.246-2.745c-3.587,2.071-4.816,6.658-2.745,10.246 l17.701,30.659c2.074,3.591,6.662,4.814,10.246,2.745C387.586,475.63,388.816,471.043,386.744,467.456z"/></g></g><g><g><path d="M75.202,142.956l-30.659-17.701c-3.59-2.07-8.176-0.843-10.246,2.745c-2.071,3.587-0.842,8.174,2.745,10.246 l30.659,17.701c3.592,2.072,8.177,0.839,10.246-2.745C80.019,149.615,78.789,145.028,75.202,142.956z"/></g></g><g><g><path d="M474.957,373.754l-30.659-17.701c-3.589-2.071-8.177-0.843-10.246,2.745c-2.072,3.587-0.842,8.174,2.745,10.246 l30.659,17.701c3.592,2.072,8.177,0.839,10.246-2.745C479.773,380.413,478.544,375.825,474.957,373.754z"/></g></g><g><g><path d="M383.999,34.299c-3.586-2.071-8.175-0.843-10.246,2.745l-17.701,30.658c-2.071,3.587-0.842,8.174,2.745,10.246 c3.585,2.07,8.174,0.844,10.246-2.745l17.701-30.658C388.816,40.957,387.586,36.37,383.999,34.299z"/></g></g><g><g><path d="M153.201,434.053c-3.589-2.072-8.174-0.843-10.246,2.745l-17.701,30.659c-2.891,5.007,0.751,11.252,6.488,11.252 c2.592,0,5.113-1.345,6.502-3.751l17.701-30.659C158.018,440.711,156.789,436.124,153.201,434.053z"/></g></g><g><g><path d="M477.702,128.001c-2.072-3.588-6.659-4.814-10.246-2.745l-30.659,17.701c-3.587,2.071-4.816,6.658-2.745,10.246 c2.073,3.59,6.661,4.813,10.246,2.745l30.659-17.701C478.544,136.176,479.773,131.588,477.702,128.001z"/></g></g><g><g><path d="M77.947,358.798c-2.072-3.588-6.66-4.815-10.246-2.745l-30.659,17.701c-3.587,2.071-4.816,6.658-2.745,10.246 c2.074,3.591,6.662,4.814,10.246,2.745l30.659-17.701C78.789,366.973,80.018,362.385,77.947,358.798z"/></g></g><g><g><path d="M42.902,248.5H7.5c-4.143,0-7.5,3.357-7.5,7.5s3.357,7.5,7.5,7.5h35.401c4.143,0,7.5-3.357,7.5-7.5 S47.045,248.5,42.902,248.5z"/></g></g><g><g><path d="M504.5,248.5h-35.401c-4.143,0-7.5,3.357-7.5,7.5s3.357,7.5,7.5,7.5H504.5c4.142,0,7.5-3.357,7.5-7.5 S508.643,248.5,504.5,248.5z"/></g></g><g><g><path d="M422.012,265.817c-4.12-0.422-7.808,2.563-8.237,6.683c-6.906,66.266-55.429,123.732-124.943,138.442 c-85.891,18.176-169.818-36.421-187.997-122.333c-19.536-92.328,44.873-180.543,138.461-190.549 c4.119-0.439,7.101-4.136,6.66-8.255c-0.44-4.119-4.129-7.106-8.255-6.66C135.19,94.101,64.797,190.755,86.158,291.712 c17.519,82.798,90.233,137.737,169.375,137.737c90.285-0.007,164.034-67.853,173.161-155.395 C429.124,269.935,426.132,266.246,422.012,265.817z"/></g></g><g><g><path d="M428.634,237.478C419.831,155.131,355.029,91.5,274.279,83.081c-4.123-0.421-7.809,2.563-8.238,6.683 c-0.429,4.119,2.563,7.808,6.683,8.237c72.619,7.568,132.833,64.729,140.993,141.071c0.411,3.849,3.663,6.704,7.448,6.704 c0.266,0,0.535-0.015,0.806-0.044C426.092,245.293,429.074,241.596,428.634,237.478z"/></g></g></svg>